ModelForces
version=1
nRows=4
nColumns=157
inDegrees=no

This file contains the forces exerted on a model during a simulation.

A force is a generalized force, meaning that it can be either a force (N) or a torque (Nm).

Units are S.I. units (second, meters, Newtons, ...)
Angles are in degrees.

endheader
time	glut_med1_r	glut_med2_r	glut_med3_r	glut_min1_r	glut_min2_r	glut_min3_r	semimem_r	semiten_r	bifemlh_r	bifemsh_r	sar_r	add_long_r	add_brev_r	add_mag1_r	add_mag2_r	add_mag3_r	tfl_r	pect_r	grac_r	glut_max1_r	glut_max2_r	glut_max3_r	iliacus_r	psoas_r	quad_fem_r	gem_r	peri_r	rect_fem_r	vas_med_r	vas_int_r	vas_lat_r	med_gas_r	lat_gas_r	soleus_r	tib_post_r	flex_dig_r	flex_hal_r	tib_ant_r	per_brev_r	per_long_r	per_tert_r	ext_dig_r	ext_hal_r	glut_med1_l	glut_med2_l	glut_med3_l	glut_min1_l	glut_min2_l	glut_min3_l	semimem_l	semiten_l	bifemlh_l	bifemsh_l	sar_l	add_long_l	add_brev_l	add_mag1_l	add_mag2_l	add_mag3_l	tfl_l	pect_l	grac_l	glut_max1_l	glut_max2_l	glut_max3_l	iliacus_l	psoas_l	quad_fem_l	gem_l	peri_l	rect_fem_l	vas_med_l	vas_int_l	vas_lat_l	med_gas_l	lat_gas_l	soleus_l	tib_post_l	flex_dig_l	flex_hal_l	tib_ant_l	per_brev_l	per_long_l	per_tert_l	ext_dig_l	ext_hal_l	ercspn_r	ercspn_l	intobl_r	intobl_l	extobl_r	extobl_l	femur_lat_meniscii_r.femur_lat_r.force.X	femur_lat_meniscii_r.femur_lat_r.force.Y	femur_lat_meniscii_r.femur_lat_r.force.Z	femur_lat_meniscii_r.femur_lat_r.torque.X	femur_lat_meniscii_r.femur_lat_r.torque.Y	femur_lat_meniscii_r.femur_lat_r.torque.Z	femur_lat_meniscii_r.meniscus_lat_r.force.X	femur_lat_meniscii_r.meniscus_lat_r.force.Y	femur_lat_meniscii_r.meniscus_lat_r.force.Z	femur_lat_meniscii_r.meniscus_lat_r.torque.X	femur_lat_meniscii_r.meniscus_lat_r.torque.Y	femur_lat_meniscii_r.meniscus_lat_r.torque.Z	femur_med_meniscii_r.femur_med_r.force.X	femur_med_meniscii_r.femur_med_r.force.Y	femur_med_meniscii_r.femur_med_r.force.Z	femur_med_meniscii_r.femur_med_r.torque.X	femur_med_meniscii_r.femur_med_r.torque.Y	femur_med_meniscii_r.femur_med_r.torque.Z	femur_med_meniscii_r.meniscus_med_r.force.X	femur_med_meniscii_r.meniscus_med_r.force.Y	femur_med_meniscii_r.meniscus_med_r.force.Z	femur_med_meniscii_r.meniscus_med_r.torque.X	femur_med_meniscii_r.meniscus_med_r.torque.Y	femur_med_meniscii_r.meniscus_med_r.torque.Z	femur_med_tibia_r.tibia_upper_r.force.X	femur_med_tibia_r.tibia_upper_r.force.Y	femur_med_tibia_r.tibia_upper_r.force.Z	femur_med_tibia_r.tibia_upper_r.torque.X	femur_med_tibia_r.tibia_upper_r.torque.Y	femur_med_tibia_r.tibia_upper_r.torque.Z	femur_med_tibia_r.femur_med_r.force.X	femur_med_tibia_r.femur_med_r.force.Y	femur_med_tibia_r.femur_med_r.force.Z	femur_med_tibia_r.femur_med_r.torque.X	femur_med_tibia_r.femur_med_r.torque.Y	femur_med_tibia_r.femur_med_r.torque.Z	femur_lat_tibia_r.tibia_upper_r.force.X	femur_lat_tibia_r.tibia_upper_r.force.Y	femur_lat_tibia_r.tibia_upper_r.force.Z	femur_lat_tibia_r.tibia_upper_r.torque.X	femur_lat_tibia_r.tibia_upper_r.torque.Y	femur_lat_tibia_r.tibia_upper_r.torque.Z	femur_lat_tibia_r.femur_lat_r.force.X	femur_lat_tibia_r.femur_lat_r.force.Y	femur_lat_tibia_r.femur_lat_r.force.Z	femur_lat_tibia_r.femur_lat_r.torque.X	femur_lat_tibia_r.femur_lat_r.torque.Y	femur_lat_tibia_r.femur_lat_r.torque.Z	aACL_R	pACL_R	aPCL_R	pPCL_R	aMCL_R	mMCL_R	pMCL_R	aLCL_R	mLCL_R	pLCL_R	ground_prescribedForce_fx	ground_prescribedForce_fy	ground_prescribedForce_fz	ground_prescribedForce_px	ground_prescribedForce_py	ground_prescribedForce_pz
      0.00000000	     37.48087652	     28.28714471	     30.25598133	     13.28977762	     14.47626353	     15.91713841	     41.79832242	     20.39245219	     37.76820936	     36.00882819	      7.58878436	     27.93927808	     20.68957741	     14.51222487	     12.16230296	     19.66717628	     12.54860288	     11.16605282	      7.77630093	     18.12681708	     27.55933735	     20.56469162	     63.94906620	     55.74758807	     18.09791099	      9.16719286	     20.03897647	     52.57271277	     32.47449261	     33.07778270	     40.77186739	     67.48690598	     31.69931831	    152.72720615	     92.44658902	     14.93332009	     15.26895791	     41.82851940	     21.62523106	     46.40594865	      8.86060096	     25.04818486	      7.96045570	     37.48087652	     28.28714471	     30.25598133	     13.28977762	     14.47626353	     15.91713841	     42.06683902	     20.39635155	     37.67631238	     36.01822118	      7.59254209	     27.93927808	     20.68957741	     14.51222487	     12.16230296	     19.66717628	     12.58139899	     11.16605282	      7.78214370	     18.12681708	     27.55933735	     20.56469162	     63.94906620	     55.74758807	     18.09791099	      9.16719286	     20.03897647	     52.59637061	     32.48786114	     37.22481259	     39.87514307	     67.71424671	     31.64857027	    152.72720615	     92.44658902	     14.93332009	     15.26895791	     41.82851940	     21.62523106	     46.40594865	      8.86060096	     25.04818486	      7.96045570	    124.99446086	    124.99446086	     44.97041513	     44.97041513	     60.98287244	     60.98287244	     10.79313158	     21.57778612	      0.58543435	     -0.79844578	      0.27807930	      4.50282251	    -10.79313158	    -21.57778612	     -0.58543435	      0.68609707	     -0.33422826	     -0.36202548	     -3.49763635	      9.98414444	     -0.64189172	      0.44869095	      0.07708605	     -1.23302340	      3.49763635	     -9.98414444	      0.64189172	     -0.14918567	     -0.05921307	     -0.12096530	      0.00000000	      0.00000000	      0.00000000	      0.00000000	      0.00000000	      0.00000000	      0.00000000	      0.00000000	      0.00000000	      0.00000000	      0.00000000	      0.00000000	      0.00000000	      0.00000000	      0.00000000	      0.00000000	      0.00000000	      0.00000000	      0.00000000	      0.00000000	      0.00000000	      0.00000000	      0.00000000	      0.00000000	      9.59159023	     27.35421420	      0.00000000	      0.00000000	      0.00000000	      3.83340630	     15.82680930	      0.67560592	      0.00000000	      1.56026721	    110.00000000	      0.00000000	      0.00000000	      0.03000000	     -0.03000000	      0.00000000
      0.00100000	     37.47068608	     28.27022932	     30.24086714	     13.26950867	     14.46480712	     15.91260065	     40.72681740	     19.75832410	     36.82346254	     32.91639207	      7.08780669	     27.92554748	     20.64313666	     14.50364319	     12.15716021	     19.66293667	     12.31260066	     11.15324218	      7.31672392	     18.11779344	     27.54583488	     20.55620729	     63.92578024	     55.73415570	     18.08271668	      9.16509816	     20.03713766	     51.18192114	     30.12899847	     30.71477795	     38.23140168	     64.80643767	     30.43371990	    148.53406920	     92.12413119	     14.98785027	     15.28151587	     43.10550788	     21.41307638	     46.11381174	      9.16340429	     25.28651495	      8.05536121	     37.47068608	     28.27022932	     30.24086714	     13.26950867	     14.46480712	     15.91260065	     42.06228881	     20.39020965	     37.67123261	     35.98888344	      7.57882260	     27.92554748	     20.64313666	     14.50364319	     12.15716021	     19.66293667	     12.58033419	     11.15324218	      7.77413879	     18.11779344	     27.54583488	     20.55620729	     63.92578024	     55.73415570	     18.08271668	      9.16509816	     20.03713766	     52.58867645	     32.47668845	     37.21372981	     39.86386325	     67.70976811	     31.64643975	    152.71327822	     92.44307771	     14.93402208	     15.26942871	     41.82127614	     21.62263156	     46.40335095	      8.85785788	     25.04326423	      7.95848292	    124.81723588	    124.81723588	     44.95337082	     44.95337082	     60.96445217	     60.96445217	     13.72651734	     28.09606707	      0.97568871	     -1.12850202	      0.35355732	      5.72643417	    -13.72651734	    -28.09606707	     -0.97568871	      0.89988274	     -0.42471543	     -0.46101568	     -4.45029234	     13.51995662	     -0.70771133	      0.54065567	      0.09577560	     -1.54933480	      4.45029234	    -13.51995662	      0.70771133	     -0.19739579	     -0.07298119	     -0.17372273	      0.00000000	      0.00000000	      0.00000000	      0.00000000	      0.00000000	      0.00000000	      0.00000000	      0.00000000	      0.00000000	      0.00000000	      0.00000000	      0.00000000	      0.00000000	      0.00000000	      0.00000000	      0.00000000	      0.00000000	      0.00000000	      0.00000000	      0.00000000	      0.00000000	      0.00000000	      0.00000000	      0.00000000	    -13.24345577	      2.71044174	      0.00000000	      0.00000000	      0.00000000	    -44.92617281	    -32.44344930	    -65.15931714	      0.00000000	    -64.34735390	    110.00000000	      0.00000000	      0.00000000	      0.03000000	     -0.03000000	      0.00000000
      0.00342033	     37.36355352	     28.10206359	     30.08805812	     13.09701347	     14.35490556	     15.86499758	     35.10670598	     16.72180743	     32.21458830	     22.54992170	      5.86950721	     27.78655366	     20.29176062	     14.41824797	     12.10449022	     19.61793492	     10.98248537	     11.03718119	      5.75868291	     18.02655759	     27.40912924	     20.46915956	     63.68816033	     55.59233342	     17.93774511	      9.14303239	     20.01719300	     44.18872904	     20.13886622	     20.34003694	     26.81536988	     48.73737263	     22.90271311	    117.82810272	     89.77577383	     15.59641659	     15.53390956	     54.25580560	     19.58728435	     43.59044960	     11.56646424	     26.99832505	      8.75507545	     37.36355352	     28.10206359	     30.08805812	     13.09701347	     14.35490556	     15.86499758	     42.01309175	     20.32595210	     37.61655193	     35.70775910	      7.46735793	     27.78655366	     20.29176062	     14.41824797	     12.10449022	     19.61793492	     12.56879223	     11.03718119	      7.70015568	     18.02655759	     27.40912924	     20.46915956	     63.68816033	     55.59233342	     17.93774511	      9.14303239	     20.01719300	     52.50601064	     32.36071046	     37.09776544	     39.74554413	     67.66097532	     31.62323158	    152.56219021	     92.40471755	     14.94120006	     15.27408107	     41.74381403	     21.59456891	     46.37499170	      8.82923925	     24.99098385	      7.93763397	    123.28201612	    123.28201612	     44.77742839	     44.77742839	     60.77579620	     60.77579620	     26.86794925	     56.51929366	      4.36885607	     -3.26117441	      0.68673675	     11.22542291	    -26.86794925	    -56.51929366	     -4.36885607	      1.87046377	     -0.82204739	     -0.92222148	     -8.73232997	     30.03899462	     -0.26985971	      0.66316183	      0.16738653	     -2.97822883	      8.73232997	    -30.03899462	      0.26985971	     -0.40494689	     -0.12268163	     -0.40103684	      0.00139468	     -0.02775577	      0.00758457	     -0.00052607	     -0.00014663	     -0.00043966	     -0.00139468	      0.02775577	     -0.00758457	      0.00358730	      0.00014900	     -0.00011458	      0.00000000	      0.00000000	      0.00000000	      0.00000000	      0.00000000	      0.00000000	      0.00000000	      0.00000000	      0.00000000	      0.00000000	      0.00000000	      0.00000000	    -24.01073182	    -14.12903797	      0.00000000	      0.00000000	      0.00000000	    -59.76244684	    -47.23548040	    -91.62206796	      0.00000000	    -89.97326052	    110.00000000	      0.00000000	      0.00000000	      0.03000000	     -0.03000000	      0.00000000
      0.00584065	     37.14561645	     27.78549190	     29.79375285	     12.82850026	     14.15748195	     15.76846131	     30.89693409	     14.86968738	     29.25082773	     19.94739905	      5.77028472	     27.51838942	     19.80647630	     14.25726168	     12.00121312	     19.52510698	      9.78824649	     10.84296626	      5.38028169	     17.85078647	     27.14527893	     20.29805636	     63.22452887	     55.30204480	     17.67912290	      9.09801143	     19.97472556	     39.37495977	     15.84352777	     15.34388089	     21.11914556	     33.44160784	     15.77585597	     81.34954437	     86.27590042	     16.71387224	     16.09874771	     66.05933294	     17.17946000	     40.03319319	     13.80416728	     29.20085947	      9.63481571	     37.14561645	     27.78549190	     29.79375285	     12.82850026	     14.15748195	     15.76846131	     41.90882591	     20.19614348	     37.50142187	     35.20345357	      7.30226852	     27.51838942	     19.80647630	     14.25726168	     12.00121312	     19.52510698	     12.54423917	     10.84296626	      7.57333532	     17.85078647	     27.14527893	     20.29805636	     63.22452887	     55.30204480	     17.67912290	      9.09801143	     19.97472556	     52.33245106	     32.12892825	     36.86339439	     39.50553931	     67.55639140	     31.57349755	    152.24041972	     92.32215059	     14.95489164	     15.28234855	     41.58228250	     21.53523541	     46.31402004	      8.77165254	     24.88344469	      7.89510085	    120.84430575	    120.84430575	     44.42868616	     44.42868616	     60.40577245	     60.40577245	     40.06565333	     84.37516146	      9.40900545	     -6.04997320	      1.01168016	     16.76456199	    -40.06565333	    -84.37516146	     -9.40900545	      2.84944561	     -1.20550691	     -1.39785900	     -1.92461863	     58.86421568	      3.40849486	     -0.25667753	     -0.02223421	      0.17899750	      1.92461863	    -58.86421568	     -3.40849486	     -0.76247510	      0.03350020	     -0.94902759	     -0.08447722	    -17.87759031	      4.69743536	     -0.34290093	     -0.06879410	     -0.27402799	      0.08447722	     17.87759031	     -4.69743536	      2.23816965	      0.06599628	      0.29746390	      0.00000000	      0.00000000	      0.00000000	      0.00000000	      0.00000000	      0.00000000	      0.00000000	      0.00000000	      0.00000000	      0.00000000	      0.00000000	      0.00000000	    -12.90511845	     -7.18332334	      0.00000000	      0.00000000	      0.00000000	    -34.04328270	    -21.57655008	    -66.34457923	      0.00000000	    -63.54926593	    110.00000000	      0.00000000	      0.00000000	      0.03000000	     -0.03000000	      0.00000000
